# File created by Blade
# Date/Time:  Wed Jan 21 17:47:32 2015
# Frame Rate: 120.000 fps
#------------------------------------------------------
:FULLY-SPECIFIED
:DEGREES
1542
root 23.484400 32.827436 -20.806056 -108.525782 61.563034 -154.574149
Spine 55.559367 -25.816665 -19.760624
Head -15.162859 -22.868139 47.220656
LeftShoulder 27.174474 -40.534306 9.351202
LeftArm 21.436957 2.024587 -32.448621
LeftForeArm -33.223567 -0.000000 -2.258174
LeftHand 0.867542 0.000000 -3.384621
LeftHandThumb1 -26.253704 0.000000 33.147579
RightShoulder -12.697520 -7.375607 -4.605228
RightArm -30.843250 40.712223 13.837670
RightForeArm 4.494362 -0.000000 9.907626
RightHand -20.317833 -0.000000 -44.743140
RightHandThumb1 -24.326973 -0.000000 -32.862282
LeftUpLeg -12.352828 39.796302 9.053678
LeftLeg -1.404773 -0.000000 0.000000
LeftFoot -1.090913 30.343110 -23.272695
LeftToeBase 30.663846 -0.000000 -0.000000
RightUpLeg -81.006151 9.008825 5.611926
RightLeg 35.551520 -0.000000 -0.000000
RightFoot -11.046037 -29.681661 5.214666
RightToeBase 23.780801 -0.000000 -0.000000
1543
root 23.551215 33.008177 -20.805147 -110.458244 61.310606 -155.974664
Spine 55.340770 -25.455442 -19.498368
Head -15.196193 -22.656616 47.066175
LeftShoulder 26.796510 -40.365160 9.275495
LeftArm 21.834373 2.067365 -33.291311
LeftForeArm -32.966595 -0.000000 -2.122741
LeftHand 0.955692 0.000000 -2.649330
LeftHandThumb1 -26.253704 0.000000 33.147579
RightShoulder -12.389040 -7.198764 -4.699760
RightArm -30.593645 40.830261 14.493624
RightForeArm 4.699089 -0.000000 10.064876
RightHand -20.083450 -0.000000 -45.046335
RightHandThumb1 -24.326973 -0.000000 -32.862282
LeftUpLeg -12.247190 38.887572 9.412098
LeftLeg -0.887333 -0.000000 0.000000
LeftFoot 0.143862 30.747375 -22.343450
LeftToeBase 32.494073 -0.000000 -0.000000
RightUpLeg -79.782551 8.543895 5.144649
RightLeg 34.630100 -0.000000 -0.000000
RightFoot -10.340154 -29.855948 5.173757
RightToeBase 23.453815 -0.000000 -0.000000
1544
root 23.582350 33.190625 -20.813717 -112.525333 61.184195 -157.757798
Spine 54.820718 -25.202000 -19.298356
Head -15.156928 -22.485324 46.854900
LeftShoulder 26.532123 -40.053378 9.195692
LeftArm 22.277351 2.205281 -34.135991
LeftForeArm -32.556844 0.000000 -2.026415
LeftHand 1.012746 -0.000000 -1.896751
LeftHandThumb1 -26.253704 0.000000 33.147579
RightShoulder -12.200640 -7.185971 -4.779847
RightArm -30.198240 40.923014 15.313591
RightForeArm 4.988296 -0.000000 10.220255
RightHand -20.113040 0.000000 -45.236775
RightHandThumb1 -24.326973 -0.000000 -32.862282
LeftUpLeg -12.575629 37.733060 9.303737
LeftLeg -0.202159 -0.000000 0.000000
LeftFoot 1.017567 31.176640 -21.297769
LeftToeBase 33.147859 -0.000000 -0.000000
RightUpLeg -78.850285 7.909093 4.471301
RightLeg 33.777593 -0.000000 -0.000000
RightFoot -9.604127 -29.973812 5.078568
RightToeBase 23.387741 -0.000000 -0.000000
1545
root 23.627951 33.376241 -20.819811 -114.555523 60.912907 -159.379878
Spine 54.487489 -24.941740 -19.070702
Head -15.082856 -22.496156 46.621624
LeftShoulder 26.118099 -39.769347 9.097530
LeftArm 22.855960 2.597079 -34.856363
LeftForeArm -32.232841 -0.000000 -2.072170
LeftHand 1.203343 0.000000 -0.987692
LeftHandThumb1 -26.253704 0.000000 33.147579
RightShoulder -11.898561 -7.021037 -4.900375
RightArm -29.967953 40.979866 16.128594
RightForeArm 5.130936 0.000000 10.476269
RightHand -19.981541 -0.000000 -45.688233
RightHandThumb1 -24.326973 -0.000000 -32.862282
LeftUpLeg -12.790197 36.518858 9.428575
LeftLeg 0.554442 -0.000000 -0.000000
LeftFoot 1.604070 31.500123 -20.286371
LeftToeBase 33.445626 -0.000000 -0.000000
RightUpLeg -77.710005 7.347946 3.865752
RightLeg 32.814183 -0.000000 -0.000000
RightFoot -8.794396 -30.167158 4.851309
RightToeBase 23.362914 -0.000000 -0.000000
1546
root 23.669971 33.559728 -20.823370 -116.614620 60.650069 -160.984709
Spine 54.180108 -24.626993 -18.944824
Head -14.998529 -22.368174 46.382293
LeftShoulder 25.738257 -39.469654 9.012479
LeftArm 23.358209 3.354655 -35.439653
LeftForeArm -32.125527 -0.000000 -2.017581
LeftHand 1.293048 -0.000000 -0.101921
LeftHandThumb1 -26.253704 0.000000 33.147579
RightShoulder -11.604572 -6.910016 -5.016383
RightArm -29.552172 40.935631 17.181709
RightForeArm 5.303516 -0.000000 10.637960
RightHand -19.863283 -0.000000 -46.261710
RightHandThumb1 -24.326973 -0.000000 -32.862282
LeftUpLeg -13.032724 35.262610 9.526966
LeftLeg 1.429642 -0.000000 -0.000000
LeftFoot 1.839961 31.743952 -19.438265
LeftToeBase 33.863739 -0.000000 -0.000000
RightUpLeg -76.520259 6.822928 3.185742
RightLeg 31.838629 -0.000000 -0.000000
RightFoot -8.003431 -30.409953 4.672467
RightToeBase 23.311839 -0.000000 -0.000000
1547
root 23.698754 33.744061 -20.830157 -118.722330 60.345087 -162.672781
Spine 53.874869 -24.388533 -18.841664
Head -14.917416 -22.277866 46.065530
LeftShoulder 25.384231 -39.303519 8.883562
LeftArm 23.785960 3.934022 -36.197665
LeftForeArm -31.740535 -0.000000 -2.112675
LeftHand 1.452865 -0.000000 0.508882
LeftHandThumb1 -26.253704 0.000000 33.147579
RightShoulder -11.316833 -6.842533 -5.185468
RightArm -29.072372 40.986578 18.348008
RightForeArm 5.184209 -0.000000 10.737880
RightHand -19.785827 -0.000000 -46.679210
RightHandThumb1 -24.326973 -0.000000 -32.862282
LeftUpLeg -13.439307 33.778939 9.565361
LeftLeg 2.491748 -0.000000 -0.000000
LeftFoot 1.713813 31.989554 -18.777545
LeftToeBase 34.390035 -0.000000 -0.000000
RightUpLeg -75.348006 6.242868 2.494216
RightLeg 30.856190 -0.000000 -0.000000
RightFoot -7.138911 -30.633456 4.435714
RightToeBase 23.511456 -0.000000 -0.000000
1548
root 23.720656 33.925871 -20.836438 -120.782831 59.996748 -164.344784
Spine 53.505185 -24.188969 -18.754104
Head -14.701384 -22.200811 45.688453
LeftShoulder 25.030468 -39.167232 8.655029
LeftArm 24.156222 4.660463 -36.903065
LeftForeArm -31.422092 -0.000000 -2.140069
LeftHand 1.454789 0.000000 0.975175
LeftHandThumb1 -26.253704 0.000000 33.147579
RightShoulder -10.959638 -6.787380 -5.355519
RightArm -28.605955 40.957604 19.604715
RightForeArm 5.166360 0.000000 10.926984
RightHand -19.611768 -0.000000 -47.169136
RightHandThumb1 -24.326973 -0.000000 -32.862282
LeftUpLeg -13.974337 32.125783 9.583667
LeftLeg 3.711544 -0.000000 -0.000000
LeftFoot 1.163523 32.185885 -18.257368
LeftToeBase 34.432409 -0.000000 -0.000000
RightUpLeg -74.204618 5.678336 1.768796
RightLeg 29.880607 -0.000000 -0.000000
RightFoot -6.200710 -30.880138 4.225613
RightToeBase 23.142578 -0.000000 -0.000000
1549
root 23.732913 34.104526 -20.843366 -122.826751 59.602642 -166.006727
Spine 52.997774 -23.741862 -18.390262
Head -14.763363 -22.413884 45.521986
LeftShoulder 25.105376 -38.917819 8.330705
LeftArm 24.573635 5.078320 -37.779103
LeftForeArm -31.178060 0.000000 -2.195241
LeftHand 1.553260 0.000000 1.385651
LeftHandThumb1 -26.253704 0.000000 33.147579
RightShoulder -10.961659 -6.790623 -5.369807
RightArm -28.085602 40.963047 20.800139
RightForeArm 5.013281 -0.000000 10.967266
RightHand -19.562280 -0.000000 -47.540733
RightHandThumb1 -24.326973 -0.000000 -32.862282
LeftUpLeg -14.613097 30.270228 9.589471
LeftLeg 5.154209 -0.000000 -0.000000
LeftFoot 0.259461 32.014882 -17.713243
LeftToeBase 33.507833 -0.000000 -0.000000
RightUpLeg -73.089890 5.094939 1.029643
RightLeg 28.957051 -0.000000 -0.000000
RightFoot -5.328850 -31.064542 4.175667
RightToeBase 23.178793 -0.000000 -0.000000
